<?xml version="1.0" encoding="UTF-8"?>
<svg id="Layer_2" data-name="Layer 2" xmlns="http://www.w3.org/2000/svg" viewBox="0 0 6142.8 2030.01">
  <defs>
    <style>
      .cls-1 {
        fill: #9381ff;
        stroke: #9381ff;
        stroke-miterlimit: 10;
        stroke-width: 30px;
      }
    </style>
  </defs>
  <g id="Layer_2-2" data-name="Layer 2">
    <g id="textblock">
      <path class="cls-1" d="m2015,1059.44c0-286.03-126.49-542.91-326.27-718.17C1513.46,141.49,1256.58,15,970.56,15,443.67,15,15,443.67,15,970.56c0,285.96,126.44,542.8,326.16,718.07,175.27,199.84,432.2,326.38,718.29,326.38,1.87,0,3.69-.13,5.56-.13s3.69.13,5.56.13c521.6,0,944.44-422.84,944.44-944.44,0-1.87-.13-3.69-.13-5.56s.13-3.69.13-5.56h-.01Zm-1626.04,474.91c-94.33-132.84-150.44-294.64-151.6-469.36,3-455.8,371.83-824.64,827.64-827.64,174.71,1.16,336.53,57.27,469.36,151.6,152.29,147.67,247.31,354,247.31,581.6,0,447.24-363.87,811.11-811.11,811.11-227.6,0-433.93-95.03-581.6-247.31h0ZM37.22,970.56C37.22,455.91,455.91,37.23,970.56,37.23c219.07,0,420.58,76.04,580,202.89-143.62-86.4-311.64-136.23-491.11-136.23-526.89,0-955.56,428.67-955.56,955.56,0,179.43,49.8,347.4,136.16,491-126.81-159.38-202.83-360.87-202.83-579.89h0Zm1022.22,911.11c-224,0-427.27-90.11-575.67-235.89,137.2,99.31,305.4,158.11,486.78,158.11,459.51,0,833.33-373.82,833.33-833.33,0-181.38-58.8-349.57-158.11-486.78,145.78,148.4,235.89,351.67,235.89,575.67,0,453.38-368.84,822.22-822.22,822.22h0Z"/>
      <g id="textblocktransform">
        <path id="text-0" class="cls-1" d="m2774.52,1321.12h0c-29.38,0-56.99-3.48-82.81-10.44-25.98-6.96-49.56-16.47-70.75-28.53-21.34-11.91-40.13-25.21-56.37-39.9-16.24-14.69-29-29.38-38.27-44.07h0c-8.51-12.37-13.92-22.66-16.24-30.85-2.32-8.04-1.7-15.93,1.86-23.66,3.4-7.73,10.52-16.24,21.34-25.52h0c12.37-9.28,23.2-13.76,32.48-13.45,9.28.46,18.02,4.18,26.21,11.13,8.04,6.96,16.32,16.24,24.82,27.84h0c19.33,26.29,42.91,45.47,70.75,57.53,27.84,11.91,55.29,17.86,82.35,17.86h0c34.8,0,65.72-4.64,92.79-13.92,27.06-9.28,48.56-23.43,64.49-42.45,15.77-18.87,23.66-43.38,23.66-73.53h0c0-24.74-6.19-45.62-18.56-62.63s-29-31.55-49.87-43.61c-20.88-11.91-44.07-22.35-69.59-31.32-25.52-8.81-51.42-17.48-77.71-25.98h0c-20.88-6.96-41.37-14.85-61.47-23.66-20.1-8.97-39.05-19.1-56.83-30.39-17.78-11.13-33.4-24.43-46.86-39.9-13.61-15.46-24.05-33.64-31.32-54.51-7.42-20.88-11.13-45.23-11.13-73.07h0c0-42.53,10.28-80.03,30.85-112.51,20.41-32.48,49.18-57.84,86.29-76.09,37.12-18.09,80.03-27.14,128.74-27.14h0c28.61,0,54.9,2.71,78.87,8.12,23.97,5.41,45.23,12.53,63.79,21.34,18.56,8.97,34.41,18.25,47.55,27.84,13.14,9.74,23.2,18.87,30.16,27.37h0c13.92,14.69,21.65,27.06,23.2,37.12,1.55,10.05-4.25,22.42-17.4,37.12h0c-12.37,13.92-24.36,21.26-35.96,22.04-11.6.77-24.36-4.64-38.28-16.24h0c-14.69-17.01-30-30.16-45.93-39.43-15.77-9.28-32.32-15.7-49.64-19.25-17.48-3.4-36.65-5.1-57.53-5.1h0c-20.1,0-38.82,2.47-56.14,7.42-17.48,5.1-32.55,12.68-45.23,22.73-12.84,10.05-22.73,22.19-29.69,36.42-6.96,14.38-10.44,30.85-10.44,49.41h0c0,20.88,5.64,38.66,16.93,53.35,11.13,14.69,25.98,27.22,44.54,37.58,18.56,10.52,39.43,19.79,62.63,27.84,23.2,8.2,47.55,16.16,73.07,23.89h0c27.84,8.51,55.29,18.79,82.35,30.85,27.06,11.91,51.42,26.52,73.07,43.84,21.65,17.48,39.05,39.36,52.19,65.65,13.14,26.29,19.72,58.77,19.72,97.43h0c0,38.66-7.5,72.68-22.5,102.07-15.16,29.38-35.88,53.89-62.17,73.53-26.29,19.79-56.21,34.72-89.77,44.77-33.71,10.05-69.13,15.08-106.24,15.08v-.02Zm665.75-11.6h0c-36.34,0-67.12-3.48-92.32-10.44-25.05-6.96-45.7-17.78-61.94-32.48-16.24-14.69-27.84-33.87-34.8-57.53-6.96-23.51-10.44-52.66-10.44-87.45h0v-512.65c0-10.83,1.16-20.1,3.48-27.84,2.32-7.73,6.96-13.76,13.92-18.09,6.96-4.18,17.78-6.26,32.48-6.26h0c14.69,0,25.9,2.09,33.64,6.26,7.73,4.33,12.76,10.13,15.08,17.4,2.32,7.42,3.48,16.55,3.48,27.37h0v513.81c0,20.1,1.7,36.11,5.1,48.02,3.56,12.06,8.97,21.19,16.24,27.37,7.42,6.19,17.32,10.05,29.69,11.6,12.37,1.55,27.45,2.32,45.23,2.32h0c12.37,0,22.42,1.16,30.16,3.48,7.73,2.32,13.53,6.96,17.4,13.92,3.87,6.96,5.8,17.4,5.8,31.32h0c0,14.69-2.17,25.67-6.5,32.94-4.18,7.42-10.36,12.14-18.56,14.15-8.04,1.86-17.09,2.78-27.14,2.78h0Zm-259.81-548.61h0l111.35,1.16,161.22-2.32c10.83,0,20.1.93,27.84,2.78,7.73,2.01,13.69,6.65,17.86,13.92,4.33,7.42,6.5,18.48,6.5,33.17h0c0,14.69-1.93,25.67-5.8,32.94-3.87,7.42-9.67,12.29-17.4,14.61s-17.01,3.48-27.84,3.48h0l-158.9-2.32-117.14,1.16c-16.24,0-27.3-3.87-33.17-11.6-5.72-7.73-8.58-20.49-8.58-38.27h0c0-17.01,3.48-29.38,10.44-37.12,6.96-7.73,18.17-11.6,33.64-11.6h-.02Zm654.15,549.77h0c-34.02,0-65.57-6.19-94.64-18.56-28.92-12.37-54.2-29.77-75.85-52.19-21.65-22.42-38.51-49.49-50.57-81.19-11.91-31.7-17.86-67.66-17.86-107.87h0v-251.69c0-10.83,1.16-20.1,3.48-27.84,2.32-7.73,7.11-13.76,14.38-18.09,7.42-4.18,18.48-6.26,33.17-6.26h0c14.69,0,25.67,2.32,32.94,6.96,7.42,4.64,12.29,10.83,14.61,18.56s3.48,17.01,3.48,27.84h0v251.69c0,31.7,5.41,59.69,16.24,83.97,10.83,24.43,27.22,43.22,49.18,56.37,22.11,13.14,49.02,19.72,80.73,19.72h0c32.48,0,60.47-6.57,83.97-19.72,23.66-13.14,41.83-31.93,54.51-56.37,12.84-24.28,19.25-52.27,19.25-83.97h0v-252.85c0-10.83,1.08-20.1,3.25-27.84,2.47-7.73,7.35-13.76,14.61-18.09,7.42-4.18,18.48-6.26,33.17-6.26h0c14.54,0,25.52,2.32,32.94,6.96s12.06,10.83,13.92,18.56c2.01,7.73,3.02,17.01,3.02,27.84h0v460.46c0,9.28-1.01,17.55-3.02,24.82-1.86,7.42-6.49,13.07-13.92,16.93-7.42,3.87-18.4,5.8-32.94,5.8h0c-10.83,0-19.56-1.16-26.21-3.48s-11.44-5.41-14.38-9.28c-3.09-3.87-5.26-8.35-6.5-13.45-1.08-4.95-1.62-10.13-1.62-15.54h0l4.64-49.87c-7.73,9.28-17.01,19.33-27.84,30.16-10.98,10.83-23.58,21.03-37.81,30.62-14.23,9.74-30.23,17.71-48.02,23.89-17.78,6.19-37.89,9.28-60.31,9.28v-.02Zm649.28-1.16h0c-34.8,0-68.04-6.96-99.75-20.88-31.7-13.92-59.31-33.64-82.81-59.15-23.66-25.52-42.22-55.52-55.67-90-13.61-34.33-20.41-71.99-20.41-112.97h0c0-40.21,6.8-77.32,20.41-111.35,13.45-34.02,32.01-63.64,55.67-88.84,23.51-25.05,51.11-44.54,82.81-58.46,31.7-13.92,64.95-20.88,99.75-20.88h0c37.89,0,72.14,6.96,102.76,20.88,30.47,13.92,56.76,33.4,78.87,58.46,21.96,25.21,38.74,54.98,50.34,89.31,11.6,34.49,17.4,71.83,17.4,112.04h0c.77,40.98-4.79,78.48-16.7,112.51-12.06,34.02-28.92,63.79-50.57,89.31-21.65,25.52-47.71,45.23-78.17,59.15-30.62,13.92-65.26,20.88-103.92,20.88h0Zm15.08-98.59h0c32.48,0,61.7-7.73,87.68-23.2,25.83-15.46,46.32-36.96,61.47-64.49,15-27.37,22.5-58.84,22.5-94.41h0c0-36.34-7.5-68.28-22.5-95.8-15.16-27.37-35.65-48.79-61.47-64.26-25.98-15.46-55.21-23.2-87.68-23.2h0c-32.48,0-61.86,7.73-88.15,23.2-26.29,15.46-46.94,36.88-61.94,64.26-15.16,27.53-22.73,59.46-22.73,95.8h0c0,35.57,7.58,67.04,22.73,94.41,15,27.53,35.88,49.02,62.63,64.49,26.6,15.46,55.75,23.2,87.45,23.2h0Zm227.33,98.59h0c-17.01,0-29.38-3.09-37.12-9.28s-12.37-16.62-13.92-31.32h0v-726.06c0-11.6,1.01-21.26,3.02-29,1.86-7.73,6.5-13.76,13.92-18.09,7.27-4.18,18.25-6.26,32.94-6.26h0c14.69,0,25.75,2.09,33.17,6.26,7.27,4.33,12.06,10.36,14.38,18.09s3.48,17.01,3.48,27.84h0v714.47c0,10.83-1.16,20.26-3.48,28.3-2.32,8.2-6.96,14.46-13.92,18.79-6.96,4.18-17.78,6.26-32.48,6.26h.01Zm251.69,0h0c-14.69,0-25.67-2.09-32.94-6.26-7.42-4.33-12.29-10.36-14.61-18.09s-3.48-17.01-3.48-27.84h0v-458.14c0-10.83,1.16-20.1,3.48-27.84,2.32-7.73,7.19-13.53,14.61-17.4,7.27-3.87,18.63-5.8,34.1-5.8h0c14.69,0,25.52,2.09,32.48,6.26,6.96,4.33,11.6,10.36,13.92,18.09,2.32,7.73,3.48,17.4,3.48,29h0v456.98c0,10.83-1.16,20.1-3.48,27.84-2.32,7.73-7.11,13.53-14.38,17.4-7.42,3.87-18.48,5.8-33.17,5.8h-.01Zm0-700.55h0c-17.01,0-29.77-2.55-38.28-7.65-8.51-4.95-14.07-12.06-16.7-21.34-2.78-9.28-4.18-20.1-4.18-32.48h0c0-12.37,1.55-23.04,4.64-32.01,3.09-8.81,8.89-15.39,17.4-19.72,8.51-4.18,21.26-6.26,38.27-6.26h0c16.24,0,28.61,2.32,37.12,6.96,8.51,4.64,14.15,11.6,16.93,20.88,2.63,9.28,3.94,20.1,3.94,32.48h0c0,12.37-1.31,22.96-3.94,31.78-2.78,8.97-8.43,15.77-16.93,20.41-8.51,4.64-21.26,6.96-38.28,6.96h0Zm317.8,701.71h0c-13.92,0-24.59-2.32-32.01-6.96-7.27-4.64-12.06-11.06-14.38-19.25-2.32-8.04-3.48-17.48-3.48-28.3h0v-582.24c0-30.93,3.48-57.99,10.44-81.19s18.56-42.53,34.8-57.99c16.24-15.46,36.88-27.3,61.94-35.49,25.21-8.04,56.37-12.06,93.48-12.06h0c10.05,0,19.1.93,27.14,2.78,8.2,2.01,14.38,6.65,18.56,13.92,4.33,7.42,6.5,18.48,6.5,33.17h0c0,14.69-2.32,25.67-6.96,32.94-4.64,7.42-10.83,12.29-18.56,14.61s-17.01,3.48-27.84,3.48h0c-17.78,0-33.09.77-45.93,2.32-12.68,1.55-22.5,5.03-29.46,10.44s-12.22,13.69-15.77,24.82c-3.4,11.29-5.1,26.6-5.1,45.93h0v588.04c0,10.05-1.39,18.94-4.18,26.68-2.63,7.73-7.66,13.76-15.08,18.09-7.27,4.18-18.63,6.26-34.1,6.26h0Zm-109.03-549.77h0l111.35,1.16,161.22-2.32c10.83,0,20.1.93,27.84,2.78,7.73,2.01,13.69,6.65,17.86,13.92,4.33,7.42,6.5,18.48,6.5,33.17h0c0,14.69-1.93,25.67-5.8,32.94-3.87,7.42-9.67,12.29-17.4,14.61s-17.01,3.48-27.84,3.48h0l-158.9-2.32-117.14,1.16c-16.24,0-27.3-3.87-33.17-11.6-5.72-7.73-8.58-20.49-8.58-38.27h0c0-17.01,3.48-29.38,10.44-37.12,6.96-7.73,18.17-11.6,33.64-11.6h-.02Zm556.73,773.62h0c-18.56-7.73-29.38-16.62-32.48-26.68-3.09-10.05-.39-23.97,8.12-41.75h0l307.36-690.11c8.51-17.78,17.55-28.84,27.14-33.17,9.74-4.18,23.51-2.4,41.29,5.34h0c18.56,8.51,29.15,17.78,31.78,27.84,2.78,10.05.31,23.58-7.42,40.59h0l-309.68,693.59c-7.73,17.78-16.24,28.22-25.52,31.32-9.28,3.09-22.81.77-40.59-6.96h0Zm162.38-409.43l-47.55,110.19-265.61-409.43c-10.05-15.46-13.92-28.45-11.6-38.97,2.32-10.36,11.21-20.57,26.68-30.62h0c17.01-10.83,30.7-14.92,41.06-12.29,10.52,2.78,21.19,11.91,32.01,27.37h0l225.01,353.75Z"/>
      </g>
    </g>
  </g>
</svg>