<?xml version="1.0" encoding="UTF-8"?>
<svg id="Layer_2" data-name="Layer 2" xmlns="http://www.w3.org/2000/svg" viewBox="0 0 2020 2020">
  <defs>
    <style>
      .cls-1 {
        stroke-width: 20px;
      }

      .cls-1, .cls-2 {
        fill: #fff;
        stroke: #fff;
        stroke-miterlimit: 10;
      }

      .cls-2 {
        stroke-width: 16px;
      }
    </style>
  </defs>
  <g id="textblock">
    <path class="cls-1" d="m2010,1054.44c0-286.03-126.49-542.91-326.27-718.17C1508.46,136.49,1251.58,10,965.56,10,438.67,10,10,438.67,10,965.56c0,285.96,126.44,542.8,326.16,718.07,175.27,199.84,432.2,326.38,718.29,326.38,1.87,0,3.69-.13,5.56-.13s3.69.13,5.56.13c521.6,0,944.44-422.84,944.44-944.44,0-1.87-.13-3.69-.13-5.56s.13-3.69.13-5.56Zm-1626.04,474.91c-94.33-132.84-150.44-294.64-151.6-469.36,3-455.8,371.83-824.64,827.64-827.64,174.71,1.16,336.53,57.27,469.36,151.6,152.29,147.67,247.31,354,247.31,581.6,0,447.24-363.87,811.11-811.11,811.11-227.6,0-433.93-95.03-581.6-247.31h0ZM32.22,965.56C32.22,450.91,450.91,32.23,965.56,32.23c219.07,0,420.58,76.04,580,202.89-143.62-86.4-311.64-136.23-491.11-136.23-526.89,0-955.56,428.67-955.56,955.56,0,179.43,49.8,347.4,136.16,491-126.8-159.38-202.82-360.87-202.82-579.89h0Zm1022.22,911.11c-224,0-427.27-90.11-575.67-235.89,137.2,99.31,305.4,158.11,486.78,158.11,459.51,0,833.33-373.82,833.33-833.33,0-181.38-58.8-349.57-158.11-486.78,145.78,148.4,235.89,351.67,235.89,575.67,0,453.38-368.84,822.22-822.22,822.22Z"/>
    <g id="textblocktransform">
      <path id="text-0" class="cls-2" d="m498.18,1111.49h0c-9.74,0-18.89-1.15-27.46-3.46-8.61-2.31-16.43-5.46-23.46-9.46-7.08-3.95-13.31-8.36-18.69-13.23-5.38-4.87-9.61-9.74-12.69-14.61h0c-2.82-4.1-4.61-7.51-5.38-10.23-.77-2.67-.56-5.28.62-7.84,1.13-2.56,3.49-5.38,7.08-8.46h0c4.1-3.08,7.69-4.56,10.77-4.46,3.08.15,5.97,1.38,8.69,3.69,2.67,2.31,5.41,5.38,8.23,9.23h0c6.41,8.72,14.23,15.07,23.46,19.07,9.23,3.95,18.33,5.92,27.3,5.92h0c11.54,0,21.79-1.54,30.76-4.61,8.97-3.08,16.1-7.77,21.38-14.07,5.23-6.26,7.84-14.38,7.84-24.38h0c0-8.2-2.05-15.13-6.15-20.77-4.1-5.64-9.61-10.46-16.54-14.46-6.92-3.95-14.61-7.41-23.07-10.38-8.46-2.92-17.05-5.79-25.76-8.61h0c-6.92-2.31-13.72-4.92-20.38-7.84-6.67-2.97-12.95-6.33-18.84-10.07-5.9-3.69-11.07-8.1-15.54-13.23-4.51-5.13-7.97-11.15-10.38-18.07-2.46-6.92-3.69-15-3.69-24.23h0c0-14.1,3.41-26.53,10.23-37.3,6.77-10.77,16.3-19.18,28.61-25.23,12.31-6,26.53-9,42.68-9h0c9.49,0,18.2.9,26.15,2.69,7.95,1.79,15,4.15,21.15,7.08,6.15,2.97,11.41,6.05,15.77,9.23,4.36,3.23,7.69,6.26,10,9.08h0c4.61,4.87,7.18,8.97,7.69,12.31.51,3.33-1.41,7.43-5.77,12.31h0c-4.1,4.61-8.08,7.05-11.92,7.31-3.85.26-8.08-1.54-12.69-5.38h0c-4.87-5.64-9.95-10-15.23-13.07-5.23-3.08-10.72-5.2-16.46-6.38-5.79-1.13-12.15-1.69-19.07-1.69h0c-6.67,0-12.87.82-18.61,2.46-5.79,1.69-10.79,4.2-15,7.54-4.26,3.33-7.54,7.36-9.84,12.07-2.31,4.77-3.46,10.23-3.46,16.38h0c0,6.92,1.87,12.82,5.61,17.69,3.69,4.87,8.61,9.02,14.77,12.46,6.15,3.49,13.07,6.56,20.77,9.23,7.69,2.72,15.77,5.36,24.23,7.92h0c9.23,2.82,18.33,6.23,27.3,10.23,8.97,3.95,17.05,8.79,24.23,14.54,7.18,5.79,12.95,13.05,17.3,21.76s6.54,19.48,6.54,32.3h0c0,12.82-2.49,24.1-7.46,33.84-5.02,9.74-11.9,17.87-20.61,24.38-8.72,6.56-18.64,11.51-29.76,14.84-11.18,3.33-22.92,5-35.22,5Zm220.73-3.85h0c-12.05,0-22.25-1.15-30.61-3.46-8.31-2.31-15.15-5.9-20.53-10.77-5.38-4.87-9.23-11.23-11.54-19.07-2.31-7.79-3.46-17.46-3.46-28.99h0v-169.97c0-3.59.38-6.67,1.15-9.23.77-2.56,2.31-4.56,4.61-6,2.31-1.38,5.9-2.08,10.77-2.08h0c4.87,0,8.59.69,11.15,2.08,2.56,1.44,4.23,3.36,5,5.77.77,2.46,1.15,5.49,1.15,9.08h0v170.35c0,6.67.56,11.97,1.69,15.92,1.18,4,2.97,7.02,5.38,9.08,2.46,2.05,5.74,3.33,9.84,3.85,4.1.51,9.1.77,15,.77h0c4.1,0,7.43.38,10,1.15,2.56.77,4.49,2.31,5.77,4.61s1.92,5.77,1.92,10.38h0c0,4.87-.72,8.51-2.15,10.92-1.38,2.46-3.44,4.02-6.15,4.69-2.67.62-5.67.92-9,.92Zm-86.14-181.89h0l36.92.38,53.45-.77c3.59,0,6.67.31,9.23.92,2.56.67,4.54,2.2,5.92,4.61,1.44,2.46,2.15,6.13,2.15,11h0c0,4.87-.64,8.51-1.92,10.92-1.28,2.46-3.2,4.08-5.77,4.85-2.56.77-5.64,1.15-9.23,1.15h0l-52.68-.77-38.84.38c-5.38,0-9.05-1.28-11-3.85-1.9-2.56-2.85-6.79-2.85-12.69h0c0-5.64,1.15-9.74,3.46-12.31,2.31-2.56,6.02-3.85,11.15-3.85Zm216.88,182.27h0c-11.28,0-21.74-2.05-31.38-6.15-9.59-4.1-17.97-9.87-25.15-17.3-7.18-7.43-12.77-16.41-16.77-26.92-3.95-10.51-5.92-22.43-5.92-35.76h0v-83.45c0-3.59.38-6.67,1.15-9.23.77-2.56,2.36-4.56,4.77-6,2.46-1.38,6.13-2.08,11-2.08h0c4.87,0,8.51.77,10.92,2.31,2.46,1.54,4.08,3.59,4.85,6.15.77,2.56,1.15,5.64,1.15,9.23h0v83.45c0,10.51,1.79,19.79,5.38,27.84,3.59,8.1,9.02,14.33,16.3,18.69,7.33,4.36,16.25,6.54,26.76,6.54h0c10.77,0,20.05-2.18,27.84-6.54,7.84-4.36,13.87-10.59,18.07-18.69,4.26-8.05,6.38-17.33,6.38-27.84h0v-83.83c0-3.59.36-6.67,1.08-9.23.82-2.56,2.44-4.56,4.85-6,2.46-1.38,6.13-2.08,11-2.08h0c4.82,0,8.46.77,10.92,2.31,2.46,1.54,4,3.59,4.61,6.15.67,2.56,1,5.64,1,9.23h0v152.66c0,3.08-.33,5.82-1,8.23-.62,2.46-2.15,4.33-4.61,5.61-2.46,1.28-6.1,1.92-10.92,1.92h0c-3.59,0-6.49-.38-8.69-1.15-2.2-.77-3.79-1.79-4.77-3.08-1.03-1.28-1.74-2.77-2.15-4.46-.36-1.64-.54-3.36-.54-5.15h0l1.54-16.54c-2.56,3.08-5.64,6.41-9.23,10-3.64,3.59-7.82,6.97-12.54,10.15-4.72,3.23-10.02,5.87-15.92,7.92-5.9,2.05-12.56,3.08-20,3.08Zm215.27-.38h0c-11.54,0-22.56-2.31-33.07-6.92-10.51-4.61-19.66-11.15-27.46-19.61-7.84-8.46-14-18.41-18.46-29.84-4.51-11.38-6.77-23.87-6.77-37.45h0c0-13.33,2.26-25.64,6.77-36.92,4.46-11.28,10.61-21.1,18.46-29.46,7.79-8.31,16.95-14.77,27.46-19.38,10.51-4.61,21.53-6.92,33.07-6.92h0c12.56,0,23.92,2.31,34.07,6.92,10.1,4.61,18.82,11.07,26.15,19.38,7.28,8.36,12.84,18.23,16.69,29.61,3.85,11.43,5.77,23.82,5.77,37.15h0c.26,13.59-1.59,26.02-5.54,37.3-4,11.28-9.59,21.15-16.77,29.61-7.18,8.46-15.82,15-25.92,19.61-10.15,4.61-21.64,6.92-34.45,6.92Zm5-32.69h0c10.77,0,20.46-2.56,29.07-7.69,8.56-5.13,15.36-12.25,20.38-21.38,4.97-9.08,7.46-19.51,7.46-31.3h0c0-12.05-2.49-22.64-7.46-31.76-5.02-9.08-11.82-16.18-20.38-21.3-8.61-5.13-18.3-7.69-29.07-7.69h0c-10.77,0-20.51,2.56-29.23,7.69-8.72,5.13-15.56,12.23-20.53,21.3-5.02,9.13-7.54,19.71-7.54,31.76h0c0,11.79,2.51,22.23,7.54,31.3,4.97,9.13,11.9,16.25,20.77,21.38,8.82,5.13,18.48,7.69,28.99,7.69Zm75.37,32.69h0c-5.64,0-9.74-1.03-12.31-3.08s-4.1-5.51-4.61-10.38h0v-240.72c0-3.85.33-7.05,1-9.61.62-2.56,2.15-4.56,4.61-6,2.41-1.38,6.05-2.08,10.92-2.08h0c4.87,0,8.54.69,11,2.08,2.41,1.44,4,3.44,4.77,6,.77,2.56,1.15,5.64,1.15,9.23h0v236.88c0,3.59-.38,6.72-1.15,9.38-.77,2.72-2.31,4.79-4.61,6.23-2.31,1.38-5.9,2.08-10.77,2.08Zm83.45,0h0c-4.87,0-8.51-.69-10.92-2.08-2.46-1.44-4.08-3.44-4.85-6-.77-2.56-1.15-5.64-1.15-9.23h0v-151.89c0-3.59.38-6.67,1.15-9.23.77-2.56,2.38-4.49,4.85-5.77,2.41-1.28,6.18-1.92,11.31-1.92h0c4.87,0,8.46.69,10.77,2.08,2.31,1.44,3.85,3.44,4.61,6,.77,2.56,1.15,5.77,1.15,9.61h0v151.51c0,3.59-.38,6.67-1.15,9.23-.77,2.56-2.36,4.49-4.77,5.77-2.46,1.28-6.13,1.92-11,1.92Zm0-232.26h0c-5.64,0-9.87-.85-12.69-2.54-2.82-1.64-4.67-4-5.54-7.08-.92-3.08-1.38-6.67-1.38-10.77h0c0-4.1.51-7.64,1.54-10.61,1.03-2.92,2.95-5.1,5.77-6.54,2.82-1.38,7.05-2.08,12.69-2.08h0c5.38,0,9.49.77,12.31,2.31,2.82,1.54,4.69,3.85,5.61,6.92.87,3.08,1.31,6.67,1.31,10.77h0c0,4.1-.44,7.61-1.31,10.54-.92,2.97-2.79,5.23-5.61,6.77-2.82,1.54-7.05,2.31-12.69,2.31Zm105.36,232.65h0c-4.61,0-8.15-.77-10.61-2.31-2.41-1.54-4-3.67-4.77-6.38-.77-2.67-1.15-5.79-1.15-9.38h0v-193.04c0-10.25,1.15-19.23,3.46-26.92,2.31-7.69,6.15-14.1,11.54-19.23,5.38-5.13,12.23-9.05,20.53-11.77,8.36-2.67,18.69-4,30.99-4h0c3.33,0,6.33.31,9,.92,2.72.67,4.77,2.2,6.15,4.61,1.44,2.46,2.15,6.13,2.15,11h0c0,4.87-.77,8.51-2.31,10.92-1.54,2.46-3.59,4.08-6.15,4.85-2.56.77-5.64,1.15-9.23,1.15h0c-5.9,0-10.97.26-15.23.77-4.2.51-7.46,1.67-9.77,3.46-2.31,1.79-4.05,4.54-5.23,8.23-1.13,3.74-1.69,8.82-1.69,15.23h0v194.96c0,3.33-.46,6.28-1.38,8.84-.87,2.56-2.54,4.56-5,6-2.41,1.38-6.18,2.08-11.31,2.08Zm-36.15-182.27h0l36.92.38,53.45-.77c3.59,0,6.67.31,9.23.92,2.56.67,4.54,2.2,5.92,4.61,1.44,2.46,2.15,6.13,2.15,11h0c0,4.87-.64,8.51-1.92,10.92-1.28,2.46-3.2,4.08-5.77,4.85-2.56.77-5.64,1.15-9.23,1.15h0l-52.68-.77-38.84.38c-5.38,0-9.05-1.28-11-3.85-1.9-2.56-2.85-6.79-2.85-12.69h0c0-5.64,1.15-9.74,3.46-12.31,2.31-2.56,6.02-3.85,11.15-3.85Zm184.58,256.49h0c-6.15-2.56-9.74-5.51-10.77-8.84-1.03-3.33-.13-7.95,2.69-13.84h0l101.9-228.8c2.82-5.9,5.82-9.56,9-11,3.23-1.38,7.79-.79,13.69,1.77h0c6.15,2.82,9.66,5.9,10.54,9.23.92,3.33.1,7.82-2.46,13.46h0l-102.67,229.96c-2.56,5.9-5.38,9.36-8.46,10.38-3.08,1.03-7.56.26-13.46-2.31Zm53.84-135.74l-15.77,36.53-88.06-135.74c-3.33-5.13-4.61-9.43-3.85-12.92.77-3.44,3.72-6.82,8.84-10.15h0c5.64-3.59,10.18-4.95,13.61-4.08,3.49.92,7.02,3.95,10.61,9.08h0l74.6,117.28Z"/>
    </g>
  </g>
</svg>