<svg xmlns="http://www.w3.org/2000/svg" version="1.1"  width="2000" height="2250" viewBox="0 0 2000 2250"><g transform="matrix(1,0,0,1,0,0)"><svg viewBox="0 0 320 360" data-background-color="#ffffff" preserveAspectRatio="xMidYMid meet" height="2250" width="2000" xmlns="http://www.w3.org/2000/svg"><g id="tight-bounds" transform="matrix(1,0,0,1,0,0)"><svg viewBox="0 0 320 360" height="360" width="320"><g><svg></svg></g><g><svg viewBox="0 0 320 360" height="360" width="320"><g><path d="M320 187.111c0-45.764-20.238-86.866-52.203-114.908-28.043-31.964-69.145-52.203-114.908-52.203-84.302 0-152.889 68.587-152.889 152.889 0 45.753 20.231 86.848 52.185 114.891 28.043 31.975 69.152 52.22 114.926 52.22 0.299 0 0.59-0.021 0.889-0.021 0.299 0 0.59 0.021 0.889 0.021 83.456 0 151.111-67.655 151.111-151.111 0-0.299-0.021-0.59-0.021-0.889 0-0.299 0.021-0.59 0.021-0.889zM59.833 263.097c-15.093-21.255-24.071-47.143-24.256-75.097 0.48-72.928 59.492-131.943 132.423-132.423 27.954 0.185 53.845 9.163 75.097 24.256 24.366 23.627 39.57 56.64 39.57 93.056 0 71.559-58.219 129.778-129.778 129.778-36.416 0-69.429-15.204-93.056-39.57zM3.556 172.889c0-82.343 66.99-149.333 149.333-149.333 35.051 0 67.292 12.167 92.8 32.462-22.98-13.824-49.863-21.796-78.578-21.796-84.302 0-152.889 68.587-152.889 152.889 0 28.708 7.968 55.584 21.785 78.56-20.288-25.5-32.452-57.739-32.451-92.782zM167.111 318.667c-35.84 0-68.363-14.418-92.107-37.743 21.952 15.89 48.864 25.298 77.885 25.298 73.522 0 133.333-59.812 133.333-133.333 0-29.02-9.408-55.932-25.298-77.885 23.324 23.744 37.742 56.267 37.743 92.107 0 72.54-59.015 131.556-131.556 131.556z" fill="#9381ff" fill-rule="nonzero" stroke="none" stroke-width="1" stroke-linecap="butt" stroke-linejoin="miter" stroke-miterlimit="10" stroke-dasharray="" stroke-dashoffset="0" font-family="none" font-weight="none" font-size="none" text-anchor="none" style="mix-blend-mode: normal" data-fill-palette-color="tertiary"></path></g><g transform="matrix(1,0,0,1,64,152.00105528227783)"><svg viewBox="0 0 192 55.99788943544433" height="55.99788943544433" width="192"><g><svg viewBox="0 0 192 55.99788943544433" height="55.99788943544433" width="192"><g><svg viewBox="0 0 192 55.99788943544433" height="55.99788943544433" width="192"><g><svg viewBox="0 0 192 55.99788943544433" height="55.99788943544433" width="192"><g id="textblocktransform"><svg viewBox="0 0 192 55.99788943544433" height="55.99788943544433" width="192" id="textblock"><g><svg viewBox="0 0 192 55.99788943544433" height="55.99788943544433" width="192"><g transform="matrix(1,0,0,1,0,0)"><svg width="192" viewBox="2.090789927782 -34.95 156.01685708360603 45.50712890625" height="55.99788943544433" data-palette-color="#9381ff"><path d="M13.55 1L13.55 1Q11.65 1 9.98 0.55 8.3 0.1 6.93-0.68 5.55-1.45 4.5-2.4 3.45-3.35 2.85-4.3L2.85-4.3Q2.3-5.1 2.15-5.63 2-6.15 2.23-6.65 2.45-7.15 3.15-7.75L3.15-7.75Q3.95-8.35 4.55-8.33 5.15-8.3 5.68-7.85 6.2-7.4 6.75-6.65L6.75-6.65Q8-4.95 9.8-4.17 11.6-3.4 13.35-3.4L13.35-3.4Q15.6-3.4 17.35-4 19.1-4.6 20.13-5.83 21.15-7.05 21.15-9L21.15-9Q21.15-10.6 20.35-11.7 19.55-12.8 18.2-13.58 16.85-14.35 15.2-14.93 13.55-15.5 11.85-16.05L11.85-16.05Q10.5-16.5 9.2-17.07 7.9-17.65 6.75-18.38 5.6-19.1 4.73-20.1 3.85-21.1 3.38-22.45 2.9-23.8 2.9-25.6L2.9-25.6Q2.9-28.35 4.23-30.45 5.55-32.55 7.95-33.73 10.35-34.9 13.5-34.9L13.5-34.9Q15.35-34.9 16.9-34.55 18.45-34.2 19.65-33.63 20.85-33.05 21.7-32.43 22.55-31.8 23-31.25L23-31.25Q23.9-30.3 24-29.65 24.1-29 23.25-28.05L23.25-28.05Q22.45-27.15 21.7-27.1 20.95-27.05 20.05-27.8L20.05-27.8Q19.1-28.9 18.07-29.5 17.05-30.1 15.93-30.33 14.8-30.55 13.45-30.55L13.45-30.55Q12.15-30.55 11.03-30.23 9.9-29.9 9.08-29.25 8.25-28.6 7.8-27.68 7.35-26.75 7.35-25.55L7.35-25.55Q7.35-24.2 8.08-23.25 8.8-22.3 10-21.63 11.2-20.95 12.7-20.43 14.2-19.9 15.85-19.4L15.85-19.4Q17.65-18.85 19.4-18.07 21.15-17.3 22.55-16.18 23.95-15.05 24.8-13.35 25.65-11.65 25.65-9.15L25.65-9.15Q25.65-6.65 24.68-4.75 23.7-2.85 22-1.58 20.3-0.3 18.13 0.35 15.95 1 13.55 1ZM42.25 0.5L42.25 0.5Q39.9 0.5 38.27 0.05 36.65-0.4 35.6-1.35 34.55-2.3 34.1-3.83 33.65-5.35 33.65-7.6L33.65-7.6 33.65-29.7Q33.65-30.4 33.8-30.9 33.95-31.4 34.4-31.68 34.85-31.95 35.8-31.95L35.8-31.95Q36.75-31.95 37.25-31.68 37.75-31.4 37.9-30.93 38.05-30.45 38.05-29.75L38.05-29.75 38.05-7.6Q38.05-6.3 38.27-5.53 38.5-4.75 38.97-4.35 39.45-3.95 40.25-3.85 41.05-3.75 42.2-3.75L42.2-3.75Q43-3.75 43.5-3.6 44-3.45 44.25-3 44.5-2.55 44.5-1.65L44.5-1.65Q44.5-0.7 44.22-0.23 43.95 0.25 43.42 0.38 42.9 0.5 42.25 0.5ZM31.05-23.15L31.05-23.15 35.85-23.1 42.8-23.2Q43.5-23.2 44-23.08 44.5-22.95 44.77-22.48 45.05-22 45.05-21.05L45.05-21.05Q45.05-20.1 44.8-19.63 44.55-19.15 44.05-19 43.55-18.85 42.85-18.85L42.85-18.85 36-18.95 30.95-18.9Q29.9-18.9 29.52-19.4 29.15-19.9 29.15-21.05L29.15-21.05Q29.15-22.15 29.6-22.65 30.05-23.15 31.05-23.15ZM59.25 0.55L59.25 0.55Q57.05 0.55 55.17-0.25 53.3-1.05 51.9-2.5 50.5-3.95 49.72-6 48.95-8.05 48.95-10.65L48.95-10.65 48.95-21.5Q48.95-22.2 49.1-22.7 49.25-23.2 49.72-23.48 50.2-23.75 51.15-23.75L51.15-23.75Q52.1-23.75 52.57-23.45 53.05-23.15 53.2-22.65 53.35-22.15 53.35-21.45L53.35-21.45 53.35-10.6Q53.35-8.55 54.05-6.98 54.75-5.4 56.17-4.55 57.6-3.7 59.65-3.7L59.65-3.7Q61.75-3.7 63.27-4.55 64.8-5.4 65.62-6.98 66.45-8.55 66.45-10.6L66.45-10.6 66.45-21.5Q66.45-22.2 66.59-22.7 66.75-23.2 67.22-23.48 67.7-23.75 68.65-23.75L68.65-23.75Q69.59-23.75 70.07-23.45 70.55-23.15 70.67-22.65 70.8-22.15 70.8-21.45L70.8-21.45 70.8-1.6Q70.8-1 70.67-0.53 70.55-0.05 70.07 0.2 69.59 0.45 68.65 0.45L68.65 0.45Q67.95 0.45 67.52 0.3 67.09 0.15 66.9-0.1 66.7-0.35 66.62-0.68 66.55-1 66.55-1.35L66.55-1.35 66.75-3.5Q66.25-2.9 65.55-2.2 64.84-1.5 63.92-0.88 63-0.25 61.85 0.15 60.7 0.55 59.25 0.55ZM87.24 0.5L87.24 0.5Q84.99 0.5 82.94-0.4 80.89-1.3 79.37-2.95 77.84-4.6 76.97-6.83 76.09-9.05 76.09-11.7L76.09-11.7Q76.09-14.3 76.97-16.5 77.84-18.7 79.37-20.33 80.89-21.95 82.94-22.85 84.99-23.75 87.24-23.75L87.24-23.75Q89.69-23.75 91.67-22.85 93.64-21.95 95.07-20.33 96.49-18.7 97.24-16.48 97.99-14.25 97.99-11.65L97.99-11.65Q98.04-9 97.27-6.8 96.49-4.6 95.09-2.95 93.69-1.3 91.72-0.4 89.74 0.5 87.24 0.5ZM87.89-3.75L87.89-3.75Q89.99-3.75 91.67-4.75 93.34-5.75 94.32-7.53 95.29-9.3 95.29-11.6L95.29-11.6Q95.29-13.95 94.32-15.73 93.34-17.5 91.67-18.5 89.99-19.5 87.89-19.5L87.89-19.5Q85.79-19.5 84.09-18.5 82.39-17.5 81.42-15.73 80.44-13.95 80.44-11.6L80.44-11.6Q80.44-9.3 81.42-7.53 82.39-5.75 84.12-4.75 85.84-3.75 87.89-3.75ZM97.69 0.5L97.69 0.5Q96.59 0.5 96.09 0.1 95.59-0.3 95.49-1.25L95.49-1.25 95.49-32.55Q95.49-33.3 95.62-33.8 95.74-34.3 96.22-34.58 96.69-34.85 97.64-34.85L97.64-34.85Q98.59-34.85 99.07-34.58 99.54-34.3 99.69-33.8 99.84-33.3 99.84-32.6L99.84-32.6 99.84-1.8Q99.84-1.1 99.69-0.58 99.54-0.05 99.09 0.23 98.64 0.5 97.69 0.5ZM108.54 0.5L108.54 0.5Q107.59 0.5 107.12 0.23 106.64-0.05 106.49-0.55 106.34-1.05 106.34-1.75L106.34-1.75 106.34-21.5Q106.34-22.2 106.49-22.7 106.64-23.2 107.12-23.45 107.59-23.7 108.59-23.7L108.59-23.7Q109.54-23.7 109.99-23.43 110.44-23.15 110.59-22.65 110.74-22.15 110.74-21.4L110.74-21.4 110.74-1.7Q110.74-1 110.59-0.5 110.44 0 109.97 0.25 109.49 0.5 108.54 0.5ZM108.54-29.7L108.54-29.7Q107.44-29.7 106.89-30.03 106.34-30.35 106.17-30.95 105.99-31.55 105.99-32.35L105.99-32.35Q105.99-33.15 106.19-33.73 106.39-34.3 106.94-34.58 107.49-34.85 108.59-34.85L108.59-34.85Q109.64-34.85 110.19-34.55 110.74-34.25 110.92-33.65 111.09-33.05 111.09-32.25L111.09-32.25Q111.09-31.45 110.92-30.88 110.74-30.3 110.19-30 109.64-29.7 108.54-29.7ZM122.24 0.55L122.24 0.55Q121.34 0.55 120.86 0.25 120.39-0.05 120.24-0.58 120.09-1.1 120.09-1.8L120.09-1.8 120.09-26.9Q120.09-28.9 120.54-30.4 120.99-31.9 122.04-32.9 123.09-33.9 124.71-34.43 126.34-34.95 128.74-34.95L128.74-34.95Q129.39-34.95 129.91-34.83 130.44-34.7 130.71-34.23 130.99-33.75 130.99-32.8L130.99-32.8Q130.99-31.85 130.69-31.38 130.39-30.9 129.89-30.75 129.39-30.6 128.69-30.6L128.69-30.6Q127.54-30.6 126.71-30.5 125.89-30.4 125.44-30.05 124.99-29.7 124.76-28.98 124.54-28.25 124.54-27L124.54-27 124.54-1.65Q124.54-1 124.36-0.5 124.19 0 123.71 0.28 123.24 0.55 122.24 0.55ZM117.54-23.15L117.54-23.15 122.34-23.1 129.29-23.2Q129.99-23.2 130.49-23.08 130.99-22.95 131.26-22.48 131.54-22 131.54-21.05L131.54-21.05Q131.54-20.1 131.29-19.63 131.04-19.15 130.54-19 130.04-18.85 129.34-18.85L129.34-18.85 122.49-18.95 117.44-18.9Q116.39-18.9 116.01-19.4 115.64-19.9 115.64-21.05L115.64-21.05Q115.64-22.15 116.09-22.65 116.54-23.15 117.54-23.15ZM141.54 10.2L141.54 10.2Q140.34 9.7 140.14 9.05 139.94 8.4 140.49 7.25L140.49 7.25 153.74-22.5Q154.29-23.65 154.91-23.93 155.54-24.2 156.69-23.7L156.69-23.7Q157.89-23.15 158.06-22.5 158.24-21.85 157.74-20.75L157.74-20.75 144.39 9.15Q143.89 10.3 143.29 10.5 142.69 10.7 141.54 10.2ZM148.54-7.45L146.49-2.7 135.04-20.35Q134.39-21.35 134.54-22.03 134.69-22.7 135.69-23.35L135.69-23.35Q136.79-24.05 137.46-23.88 138.14-23.7 138.84-22.7L138.84-22.7 148.54-7.45Z" opacity="1" transform="matrix(1,0,0,1,0,0)" fill="#9381ff" class="wordmark-text-0" data-fill-palette-color="primary" id="text-0"></path></svg></g></svg></g></svg></g></svg></g></svg></g></svg></g></svg></g></svg></g><defs></defs></svg><rect width="320" height="360" fill="none" stroke="none" visibility="hidden"></rect></g></svg></g></svg>